# xmcd
#
# Track frame offsets:
#	150
#	19427
#	32442
#	53661
#	69339
#	82558
#	94804
#	108709
#	122285
#	135714
#	149231
#	166022
#	180916
#
# Disc length: 2593 seconds
#
# Revision: 1
# Processed by: cddbd v1.5.2PL0 Copyright (c) Steve Scherf et al.
# Submitted via: audiograbber 1.83.01
#
DISCID=a00a1f0d
DTITLE=Alvin Lee and Mylon le Fevre - On the road to freedom
DYEAR=1900
DGENRE=
TTITLE0=On the road to freedom 
TTITLE1=The world is changing
TTITLE2=So sad
TTITLE3=Fallen angel
TTITLE4=Funny
TTITLE5=We will shine
TTITLE6=Carry my load
TTITLE7=Lay me back
TTITLE8=Let 'em say what they will
TTITLE9=I can't take it
TTITLE10=Ruffin
TTITLE11=Rockin' til the sun goes down
TTITLE12=So sad (Single version)
EXTD=
EXTT0=
EXTT1=
EXTT2=
EXTT3=
EXTT4=
EXTT5=
EXTT6=
EXTT7=
EXTT8=
EXTT9=
EXTT10=
EXTT11=
EXTT12=
PLAYORDER=
